<svg width="512" height="512" viewBox="0 0 512 512" xmlns="http://www.w3.org/2000/svg">
    <circle
        cx="256"
        cy="256"
        r="200"
        fill="#ffffff"
     />
    <path
        fill="#b9180b"
        d="M2335 5109 c-713 -62 -1388 -438 -1820 -1014 -377 -503 -559 -1132
        -505 -1745 104 -1160 951 -2095 2087 -2305 814 -151 1646 102 2242 680 929
        902 1041 2342 263 3375 -529 702 -1388 1084 -2267 1009z m944 -980 c106 -53
        171 -163 171 -287 -1 -112 -42 -179 -159 -257 -99 -65 -416 -220 -636 -310
        -104 -43 -195 -83 -201 -89 -16 -15 -79 -376 -66 -376 2 0 44 18 92 39 215 97
        368 136 515 130 185 -8 267 -94 267 -281 0 -84 -30 -155 -93 -216 -87 -86
        -334 -207 -626 -308 l-142 -49 -12 -49 c-12 -49 -7 -256 6 -302 7 -21 10 -20
        172 33 232 76 460 140 551 154 92 14 137 4 209 -44 166 -111 184 -361 35 -485
        -130 -109 -438 -271 -712 -375 -320 -122 -399 -126 -616 -27 -122 55 -259 169
        -284 236 -29 76 -58 355 -81 789 -13 234 -7 661 11 845 49 505 164 863 312
        970 91 66 373 156 688 220 249 50 366 68 461 69 66 1 84 -3 138 -30z"
        transform="translate(0.000000,512.000000) scale(0.100000,-0.100000)"/>
</svg>
